<svg xmlns="http://www.w3.org/2000/svg" width="24" height="24" viewBox="0 0 24 24" fill="none">
   <style>
   @media (prefers-color-scheme: dark) {
   .a { fill: #f0f0f0 }
    }
    </style>
  <path class="a" fill="#1E1E1E" d="M22.536 12.8641C23.016 12.8641 23.4 12.4801 23.4 12.0001C23.4 11.5201 23.016 11.1361 22.536 11.1361H21.792V8.6161H22.536C23.016 8.6161 23.4 8.2321 23.4 7.7521C23.4 7.2721 23.016 6.8881 22.536 6.8881H21.792V3.0961C21.792 2.6161 21.408 2.2321 20.928 2.2321H17.136V1.4641C17.136 0.984098 16.752 0.600098 16.272 0.600098C15.792 0.600098 15.408 0.984098 15.408 1.4641V2.2081H12.864V1.4641C12.864 0.984098 12.48 0.600098 12 0.600098C11.52 0.600098 11.136 0.984098 11.136 1.4641V2.2081H8.61598V1.4641C8.61598 0.984098 8.23198 0.600098 7.75198 0.600098C7.27198 0.600098 6.88798 0.984098 6.88798 1.4641V2.2081H3.09598C2.61598 2.2081 2.23198 2.5921 2.23198 3.0721V6.8401H1.46398C0.983976 6.8401 0.599976 7.2241 0.599976 7.7041C0.599976 8.1841 0.983976 8.5681 1.46398 8.5681H2.20798V11.0881H1.46398C0.983976 11.0881 0.599976 11.4721 0.599976 11.9521C0.599976 12.4321 0.983976 12.8161 1.46398 12.8161H2.20798V15.3361H1.46398C0.983976 15.3361 0.599976 15.7201 0.599976 16.2001C0.599976 16.6801 0.983976 17.0641 1.46398 17.0641H2.20798V20.8321C2.20798 21.3121 2.59198 21.6961 3.07198 21.6961H6.83998V22.4401C6.83998 22.9201 7.22398 23.3041 7.70398 23.3041C8.18398 23.3041 8.56798 22.9201 8.56798 22.4401V21.6961H11.088V22.4401C11.088 22.9201 11.472 23.3041 11.952 23.3041C12.432 23.3041 12.816 22.9201 12.816 22.4401V21.6961H15.336V22.4401C15.336 22.9201 15.72 23.3041 16.2 23.3041C16.68 23.3041 17.064 22.9201 17.064 22.4401V21.6961H20.832C21.312 21.6961 21.696 21.3121 21.696 20.8321V17.1361H22.44C22.92 17.1361 23.304 16.7521 23.304 16.2721C23.304 15.7921 22.92 15.4081 22.44 15.4081H21.696V12.8641H22.536ZM20.04 15.3841H19.296C18.816 15.3841 18.432 15.7681 18.432 16.2481C18.432 16.7281 18.816 17.1121 19.296 17.1121H20.04V20.0161H17.136V19.2721C17.136 18.7921 16.752 18.4081 16.272 18.4081C15.792 18.4081 15.408 18.7921 15.408 19.2721V20.0161H12.864V19.2721C12.864 18.7921 12.48 18.4081 12 18.4081C11.52 18.4081 11.136 18.7921 11.136 19.2721V20.0161H8.61598V19.2721C8.61598 18.7921 8.23198 18.4081 7.75198 18.4081C7.27198 18.4081 6.88798 18.7921 6.88798 19.2721V20.0161H3.95998V17.1361H4.70398C5.18398 17.1361 5.56798 16.7521 5.56798 16.2721C5.56798 15.7921 5.18398 15.4081 4.70398 15.4081H3.95998V12.8641H4.70398C5.18398 12.8641 5.56798 12.4801 5.56798 12.0001C5.56798 11.5201 5.18398 11.1361 4.70398 11.1361H3.95998V8.6161H4.70398C5.18398 8.6161 5.56798 8.2321 5.56798 7.7521C5.56798 7.2721 5.18398 6.8881 4.70398 6.8881H3.95998V3.9601H6.86398V4.7041C6.86398 5.1841 7.24798 5.5681 7.72798 5.5681C8.20798 5.5681 8.59198 5.1841 8.59198 4.7041V3.9601H11.112V4.7041C11.112 5.1841 11.496 5.5681 11.976 5.5681C12.456 5.5681 12.84 5.1841 12.84 4.7041V3.9601H15.36V4.7041C15.36 5.1841 15.744 5.5681 16.224 5.5681C16.704 5.5681 17.088 5.1841 17.088 4.7041V3.9601H19.992V6.8641H19.248C18.768 6.8641 18.384 7.2481 18.384 7.7281C18.384 8.2081 18.768 8.5921 19.248 8.5921H19.992V11.1121H19.248C18.768 11.1121 18.384 11.4961 18.384 11.9761C18.384 12.4561 18.768 12.8401 19.248 12.8401H19.992V15.3841H20.04Z" />
</svg>